#N canvas 134 23 1259 755 10;
#X text 19 4 itp sonic lab session 1 2016 september 13;
#X obj 652 150 metro 1000;
#X obj 637 66 tgl 15 0 empty empty empty 17 7 0 10 -262144 -1 -1 0
1;
#X text 678 57 toggle;
#X floatatom 668 82 5 0 0 0 - - -;
#X obj 660 195 bng 15 250 50 0 empty empty empty 17 7 0 10 -262144
-1 -1;
#X obj 662 244 random 127;
#X text 19 4 itp sonic lab session 1 2016 september 13;
#X obj 434 301 osc~;
#X obj 527 79 vsl 15 128 0 127 0 0 empty empty empty 0 -9 0 10 -4034
-1 -1 0 1;
#X floatatom 590 232 5 0 0 0 - - -;
#X obj 504 261 / 127;
#X floatatom 532 299 5 0 0 0 - - -;
#X obj 471 341 *~;
#X obj 322 419 dac~;
#X text 782 151 metro outputs a bang every X ms;
#X text 746 248 random outputs a random number between 0 and X;
#X floatatom 656 288 5 0 0 0 - - -;
#X floatatom 430 266 5 0 0 0 - - -;
#X obj 89 237 osc~;
#X obj 330 45 vsl 15 128 0 127 0 0 empty empty empty 0 -9 0 10 -4034
-1 -1 5500 1;
#X floatatom 393 198 5 0 0 0 - - -;
#X obj 307 227 / 127;
#X floatatom 335 265 5 0 0 0 - - -;
#X obj 174 363 *~;
#X floatatom 80 186 5 0 0 0 - - -;
#X obj 655 328 mtof;
#X floatatom 656 376 5 0 0 0 - - -;
#X text 787 73 comment;
#X text 779 176 comment;
#X floatatom 732 92 5 0 0 0 - - -;
#X obj 146 240 osc~;
#X obj 111 284 *~;
#X floatatom 149 199 5 0 0 0 - - -;
#X connect 1 0 5 0;
#X connect 2 0 1 0;
#X connect 2 0 4 0;
#X connect 5 0 6 0;
#X connect 6 0 17 0;
#X connect 8 0 13 0;
#X connect 9 0 10 0;
#X connect 9 0 11 0;
#X connect 11 0 12 0;
#X connect 12 0 13 1;
#X connect 13 0 14 1;
#X connect 17 0 26 0;
#X connect 18 0 8 0;
#X connect 19 0 32 0;
#X connect 20 0 21 0;
#X connect 20 0 22 0;
#X connect 22 0 23 0;
#X connect 23 0 24 1;
#X connect 24 0 14 0;
#X connect 25 0 19 0;
#X connect 26 0 27 0;
#X connect 27 0 18 0;
#X connect 30 0 1 1;
#X connect 31 0 32 1;
#X connect 32 0 24 0;
#X connect 33 0 31 0;
